<?xml version="1.0" encoding="UTF-8" standalone="no"?>
<!DOCTYPE svg PUBLIC "-//W3C//DTD SVG 1.1//EN" "http://www.w3.org/Graphics/SVG/1.1/DTD/svg11.dtd">
<svg width="100%" height="100%" viewBox="0 0 195 52" version="1.1" xmlns="http://www.w3.org/2000/svg" xmlns:xlink="http://www.w3.org/1999/xlink" xml:space="preserve" xmlns:serif="http://www.serif.com/" style="fill-rule:evenodd;clip-rule:evenodd;stroke-linejoin:round;stroke-miterlimit:2;">
    <g transform="matrix(1,0,0,1,-10,-516.735)">
        <g transform="matrix(0.833014,0,0,0.833014,-327.99,225.699)">
            <path d="M438.399,369.655C440.552,368.893 442.867,368.478 445.278,368.478C456.664,368.478 465.907,377.721 465.907,389.106C465.907,400.492 456.664,409.735 445.278,409.735C442.867,409.735 440.552,409.32 438.399,408.558C444.939,404.548 449.305,397.333 449.305,389.106C449.305,380.88 444.939,373.665 438.399,369.655Z" style="fill:rgb(0,39,255);"/>
        </g>
        <g transform="matrix(0,0.967345,-0.967345,0,261.923,-26.4727)">
            <circle cx="595.756" cy="242.632" r="17.764" style="fill:rgb(255,243,0);"/>
        </g>
        <g transform="matrix(70.5296,0,0,69.5934,72.5362,565.948)">
            <path d="M0.452,-0.667C0.452,-0.718 0.521,-0.718 0.521,-0.667L0.521,-0.298C0.521,-0.273 0.52,-0.25 0.518,-0.23C0.516,-0.21 0.513,-0.192 0.509,-0.176C0.505,-0.159 0.5,-0.144 0.493,-0.13C0.486,-0.116 0.478,-0.103 0.469,-0.09C0.446,-0.059 0.418,-0.035 0.383,-0.018C0.347,-0 0.31,0.009 0.271,0.009C0.237,0.009 0.205,0.003 0.175,-0.011C0.144,-0.023 0.118,-0.041 0.095,-0.064C0.072,-0.087 0.055,-0.113 0.042,-0.144C0.028,-0.174 0.022,-0.206 0.022,-0.241C0.022,-0.276 0.028,-0.308 0.042,-0.339C0.055,-0.369 0.072,-0.395 0.095,-0.418C0.117,-0.44 0.143,-0.458 0.174,-0.471C0.204,-0.484 0.236,-0.49 0.271,-0.49C0.301,-0.49 0.328,-0.486 0.352,-0.478C0.376,-0.47 0.401,-0.456 0.426,-0.437L0.426,-0.351C0.401,-0.376 0.375,-0.394 0.35,-0.406C0.325,-0.417 0.298,-0.423 0.27,-0.423C0.246,-0.423 0.223,-0.418 0.202,-0.409C0.18,-0.399 0.161,-0.386 0.145,-0.37C0.129,-0.353 0.116,-0.334 0.107,-0.312C0.098,-0.289 0.093,-0.265 0.093,-0.24C0.093,-0.215 0.098,-0.191 0.107,-0.169C0.116,-0.147 0.129,-0.128 0.146,-0.112C0.162,-0.095 0.181,-0.082 0.203,-0.073C0.224,-0.063 0.247,-0.058 0.272,-0.058C0.301,-0.058 0.33,-0.065 0.357,-0.08C0.384,-0.095 0.406,-0.114 0.421,-0.139C0.427,-0.148 0.432,-0.158 0.436,-0.168C0.44,-0.177 0.443,-0.188 0.446,-0.201C0.448,-0.214 0.45,-0.228 0.451,-0.244C0.452,-0.259 0.452,-0.278 0.452,-0.299L0.452,-0.667Z" style="fill-rule:nonzero;"/>
        </g>
        <g transform="matrix(70.5296,0,0,69.5934,111.891,565.948)">
            <path d="M0.274,-0.49C0.309,-0.49 0.341,-0.484 0.371,-0.471C0.401,-0.458 0.427,-0.44 0.45,-0.417C0.472,-0.393 0.49,-0.367 0.503,-0.336C0.516,-0.305 0.522,-0.272 0.522,-0.237C0.522,-0.204 0.515,-0.172 0.502,-0.142C0.489,-0.112 0.471,-0.086 0.448,-0.064C0.425,-0.041 0.399,-0.023 0.369,-0.011C0.338,0.003 0.306,0.009 0.272,0.009C0.237,0.009 0.205,0.003 0.175,-0.011C0.144,-0.023 0.118,-0.041 0.095,-0.064C0.072,-0.087 0.055,-0.113 0.042,-0.144C0.028,-0.174 0.022,-0.206 0.022,-0.241C0.022,-0.276 0.028,-0.308 0.042,-0.339C0.055,-0.369 0.073,-0.395 0.096,-0.418C0.119,-0.44 0.145,-0.458 0.176,-0.471C0.206,-0.484 0.239,-0.49 0.274,-0.49ZM0.273,-0.423C0.248,-0.423 0.224,-0.418 0.203,-0.409C0.181,-0.399 0.162,-0.386 0.146,-0.37C0.129,-0.353 0.116,-0.334 0.107,-0.312C0.098,-0.289 0.093,-0.265 0.093,-0.24C0.093,-0.215 0.098,-0.191 0.107,-0.169C0.116,-0.147 0.129,-0.128 0.146,-0.112C0.162,-0.095 0.181,-0.082 0.203,-0.073C0.224,-0.063 0.247,-0.058 0.272,-0.058C0.296,-0.058 0.319,-0.063 0.341,-0.072C0.362,-0.081 0.381,-0.094 0.398,-0.111C0.414,-0.127 0.427,-0.146 0.437,-0.168C0.446,-0.189 0.451,-0.212 0.451,-0.236C0.451,-0.262 0.446,-0.286 0.437,-0.309C0.428,-0.332 0.415,-0.352 0.399,-0.369C0.383,-0.386 0.364,-0.399 0.343,-0.409C0.321,-0.418 0.298,-0.423 0.273,-0.423Z" style="fill-rule:nonzero;"/>
        </g>
        <g transform="matrix(70.5296,0,0,69.5934,150.401,565.948)">
            <path d="M0.251,0.007L0.233,0.007C0.177,0.007 0.131,-0.009 0.096,-0.04C0.085,-0.05 0.077,-0.06 0.07,-0.071C0.063,-0.082 0.057,-0.094 0.053,-0.108C0.048,-0.122 0.045,-0.138 0.044,-0.157C0.042,-0.176 0.041,-0.198 0.041,-0.224L0.041,-0.627C0.041,-0.673 0.11,-0.674 0.11,-0.627L0.11,-0.483L0.232,-0.483C0.256,-0.483 0.269,-0.467 0.269,-0.45C0.269,-0.433 0.257,-0.416 0.232,-0.416L0.11,-0.416L0.11,-0.225C0.11,-0.192 0.112,-0.167 0.116,-0.149C0.12,-0.13 0.127,-0.114 0.136,-0.101C0.157,-0.074 0.191,-0.06 0.236,-0.06L0.273,-0.06L0.251,0.007Z" style="fill-rule:nonzero;"/>
        </g>
        <g transform="matrix(70.5296,0,0,69.5934,171.277,565.948)">
            <path d="M-0.018,0.007C-0.018,0.007 -0.007,-0.025 0.004,-0.06C0.027,-0.06 0.062,-0.064 0.076,-0.073C0.089,-0.081 0.1,-0.093 0.107,-0.108C0.111,-0.117 0.114,-0.125 0.117,-0.133C0.12,-0.14 0.122,-0.15 0.124,-0.161C0.126,-0.172 0.128,-0.187 0.129,-0.204C0.13,-0.221 0.132,-0.244 0.134,-0.272C0.139,-0.343 0.155,-0.398 0.182,-0.435C0.209,-0.472 0.247,-0.491 0.295,-0.491C0.304,-0.491 0.315,-0.49 0.329,-0.488C0.382,-0.483 0.376,-0.418 0.329,-0.421C0.324,-0.421 0.322,-0.424 0.309,-0.424C0.272,-0.423 0.246,-0.41 0.229,-0.381C0.225,-0.373 0.222,-0.365 0.219,-0.358C0.216,-0.35 0.214,-0.341 0.212,-0.331C0.21,-0.32 0.208,-0.307 0.207,-0.292C0.206,-0.276 0.204,-0.256 0.202,-0.232C0.199,-0.191 0.195,-0.159 0.189,-0.134C0.183,-0.109 0.174,-0.086 0.162,-0.065C0.149,-0.042 0.131,-0.024 0.11,-0.012C0.088,0.001 0.064,0.007 0.037,0.007L-0.018,0.007Z" style="fill-rule:nonzero;"/>
        </g>
    </g>
</svg>
